<?xml version="1.0" standalone="no"?><!DOCTYPE svg PUBLIC "-//W3C//DTD SVG 1.1//EN" "http://www.w3.org/Graphics/SVG/1.1/DTD/svg11.dtd"><svg class="icon" height="512" viewBox="0 0 1024 1024" version="1.1" xmlns="http://www.w3.org/2000/svg"><path d="M634.9 338c0-5.7-4.4-10.2-10.1-10.2h-41.1c-5.6 0-10.1 4.7-10.1 10.2v348.2c0 5.7 4.4 10.2 10.1 10.2h41.1c5.6 0 10.1-4.7 10.1-10.2V338z m-184.3 0c0-5.7-4.4-10.2-10.1-10.2h-41.1c-5.6 0-10.1 4.7-10.1 10.2v348.2c0 5.7 4.4 10.2 10.1 10.2h41.1c5.6 0 10.1-4.7 10.1-10.2V338z m61.4 665.5c-271.5 0-491.5-220.1-491.5-491.5S240.5 20.5 512 20.5s491.5 220.1 491.5 491.5-220 491.5-491.5 491.5z" fill="#FD5353" /></svg>